<svg width="1200" height="1600" viewBox="0 0 1200 1600" fill="none" xmlns="http://www.w3.org/2000/svg">
  <defs>
    <linearGradient id="bg" x1="150" y1="120" x2="1030" y2="1510" gradientUnits="userSpaceOnUse">
      <stop stop-color="#FFE2EC"/>
      <stop offset="0.48" stop-color="#FFC7D9"/>
      <stop offset="1" stop-color="#FF9DB8"/>
    </linearGradient>
    <radialGradient id="glowA" cx="0" cy="0" r="1" gradientUnits="userSpaceOnUse" gradientTransform="translate(930 280) rotate(106.783) scale(508 539)">
      <stop stop-color="#FFF7FB"/>
      <stop offset="1" stop-color="#FFF7FB" stop-opacity="0"/>
    </radialGradient>
    <radialGradient id="glowB" cx="0" cy="0" r="1" gradientUnits="userSpaceOnUse" gradientTransform="translate(250 1320) rotate(35.264) scale(620 480)">
      <stop stop-color="#FFEEF5"/>
      <stop offset="1" stop-color="#FFEEF5" stop-opacity="0"/>
    </radialGradient>
    <linearGradient id="card" x1="238" y1="286" x2="900" y2="1278" gradientUnits="userSpaceOnUse">
      <stop stop-color="#FFFFFF" stop-opacity="0.9"/>
      <stop offset="1" stop-color="#FFF7FB" stop-opacity="0.74"/>
    </linearGradient>
    <linearGradient id="yesBtn" x1="308" y1="1022" x2="676" y2="1136" gradientUnits="userSpaceOnUse">
      <stop stop-color="#FF4A9C"/>
      <stop offset="1" stop-color="#FF6E85"/>
    </linearGradient>
    <linearGradient id="heartFill" x1="600" y1="575" x2="600" y2="860" gradientUnits="userSpaceOnUse">
      <stop stop-color="#FF8CB5"/>
      <stop offset="1" stop-color="#FF4869"/>
    </linearGradient>
    <filter id="shadow" x="150" y="200" width="900" height="1180" filterUnits="userSpaceOnUse" color-interpolation-filters="sRGB">
      <feFlood flood-opacity="0" result="BackgroundImageFix"/>
      <feColorMatrix in="SourceAlpha" type="matrix" values="0 0 0 0 0 0 0 0 0 0 0 0 0 0 0 0 0 0 127 0" result="hardAlpha"/>
      <feOffset dy="34"/>
      <feGaussianBlur stdDeviation="34"/>
      <feColorMatrix type="matrix" values="0 0 0 0 0.744 0 0 0 0 0.283 0 0 0 0 0.464 0 0 0 0.18 0"/>
      <feBlend mode="normal" in2="BackgroundImageFix" result="effect1_dropShadow_0_1"/>
      <feBlend mode="normal" in="SourceGraphic" in2="effect1_dropShadow_0_1" result="shape"/>
    </filter>
    <filter id="soft" x="0" y="0" width="1200" height="1600" filterUnits="userSpaceOnUse" color-interpolation-filters="sRGB">
      <feGaussianBlur stdDeviation="14"/>
    </filter>
  </defs>

  <rect width="1200" height="1600" rx="42" fill="url(#bg)"/>
  <rect width="1200" height="1600" rx="42" fill="url(#glowA)"/>
  <rect width="1200" height="1600" rx="42" fill="url(#glowB)"/>

  <g opacity="0.48" filter="url(#soft)">
    <circle cx="960" cy="264" r="86" fill="#FFFFFF"/>
    <circle cx="216" cy="1328" r="118" fill="#FFD1E1"/>
    <circle cx="1060" cy="1130" r="74" fill="#FFC2D6"/>
  </g>

  <g opacity="0.22">
    <path d="M182 310C145 262 78 242 32 286C-12 330 -2 405 51 455L179 580L306 455C360 405 369 330 325 286C279 242 213 262 182 310Z" fill="#FFF6FA"/>
    <path d="M1018 1188C982 1140 914 1120 868 1164C824 1208 834 1283 887 1333L1015 1458L1142 1333C1196 1283 1205 1208 1161 1164C1115 1120 1049 1140 1018 1188Z" fill="#FFF4F9"/>
  </g>

  <g filter="url(#shadow)">
    <rect x="218" y="254" width="764" height="1062" rx="52" fill="url(#card)"/>
    <rect x="258" y="314" width="684" height="520" rx="38" fill="#FFFFFF" fill-opacity="0.92" stroke="#FFD6E4" stroke-width="3"/>
    <text x="600" y="408" text-anchor="middle" fill="#D92D6B" font-family="Avenir Next, Segoe UI, Arial, sans-serif" font-size="68" font-weight="700">Valentine Website</text>
    <text x="600" y="466" text-anchor="middle" fill="#B96382" font-family="Avenir Next, Segoe UI, Arial, sans-serif" font-size="26" letter-spacing="3">INTERACTIVE PROPOSAL MOMENTS</text>

    <g transform="translate(0 4)">
      <path d="M600 544C544 472 442 441 373 505C306 569 321 681 402 756L600 920L798 756C879 681 894 569 827 505C758 441 656 472 600 544Z" fill="url(#heartFill)"/>
      <path d="M532 664C563 624 633 619 671 658C706 694 704 754 665 792C625 830 600 852 600 852C600 852 575 830 535 792C496 754 494 694 529 658C530 656 531 665 532 664Z" fill="#FFF7FB" fill-opacity="0.78"/>
      <ellipse cx="540" cy="710" rx="14" ry="18" fill="#C9355B"/>
      <ellipse cx="660" cy="710" rx="14" ry="18" fill="#C9355B"/>
      <path d="M544 774C571 796 629 796 656 774" stroke="#C9355B" stroke-width="10" stroke-linecap="round"/>
    </g>

    <g opacity="0.92">
      <rect x="310" y="1014" width="378" height="112" rx="56" fill="url(#yesBtn)"/>
      <rect x="716" y="1014" width="174" height="112" rx="56" fill="#FFF0F5" stroke="#F495B7" stroke-width="4"/>
      <text x="499" y="1085" text-anchor="middle" fill="white" font-family="Avenir Next, Segoe UI, Arial, sans-serif" font-size="48" font-weight="800">YES</text>
      <text x="803" y="1085" text-anchor="middle" fill="#E0628A" font-family="Avenir Next, Segoe UI, Arial, sans-serif" font-size="34" font-weight="700">NO</text>
    </g>

    <g opacity="0.9">
      <rect x="298" y="1178" width="168" height="104" rx="24" fill="#FFF8FB" stroke="#FFD8E5" stroke-width="3"/>
      <rect x="516" y="1178" width="168" height="104" rx="24" fill="#FFF8FB" stroke="#FFD8E5" stroke-width="3"/>
      <rect x="734" y="1178" width="168" height="104" rx="24" fill="#FFF8FB" stroke="#FFD8E5" stroke-width="3"/>
      <rect x="320" y="1202" width="124" height="56" rx="18" fill="#FFD6E4"/>
      <rect x="538" y="1202" width="124" height="56" rx="18" fill="#FFD6E4"/>
      <rect x="756" y="1202" width="124" height="56" rx="18" fill="#FFD6E4"/>
      <circle cx="382" cy="1230" r="18" fill="#FF7FA8"/>
      <path d="M588 1210L610 1238L642 1208" stroke="#FF7FA8" stroke-width="10" stroke-linecap="round" stroke-linejoin="round"/>
      <path d="M806 1216C793 1196 765 1188 746 1207C728 1226 732 1256 755 1278L807 1328L860 1278C883 1256 887 1226 869 1207C850 1188 821 1196 808 1216H806Z" fill="#FF7FA8"/>
    </g>
  </g>

  <g opacity="0.8">
    <path d="M930 480C915 456 882 447 861 467C840 487 845 520 870 546L930 607L991 546C1015 520 1020 487 999 467C978 447 945 456 930 480Z" fill="#FFF7FB"/>
    <circle cx="872" cy="686" r="18" fill="#FFFFFF"/>
    <circle cx="902" cy="720" r="10" fill="#FFE4EF"/>
    <circle cx="940" cy="676" r="13" fill="#FFFFFF"/>
  </g>
</svg>
