<svg xmlns="http://www.w3.org/2000/svg" viewBox="0 0 900 1200" role="img" aria-label="Image to PDF utility portrait illustration">
  <defs>
    <linearGradient id="bg" x1="0" y1="0" x2="1" y2="1">
      <stop offset="0" stop-color="#0f172a"/>
      <stop offset="1" stop-color="#111827"/>
    </linearGradient>
    <linearGradient id="accent" x1="0" y1="0" x2="1" y2="1">
      <stop offset="0" stop-color="#00FF9E"/>
      <stop offset="1" stop-color="#2EB9DF"/>
    </linearGradient>
  </defs>

  <rect width="900" height="1200" fill="url(#bg)"/>

  <rect x="82" y="140" width="300" height="430" rx="22" fill="#1F2937" stroke="#334155" stroke-width="3"/>
  <rect x="108" y="186" width="248" height="14" rx="7" fill="#475569"/>
  <rect x="108" y="220" width="180" height="14" rx="7" fill="#475569"/>
  <rect x="108" y="258" width="248" height="280" rx="14" fill="#0f172a" stroke="#334155"/>

  <path d="M404 360h88" stroke="url(#accent)" stroke-width="10" stroke-linecap="round"/>
  <path d="M474 332l34 28-34 28" fill="none" stroke="url(#accent)" stroke-width="10" stroke-linecap="round" stroke-linejoin="round"/>

  <rect x="520" y="200" width="300" height="470" rx="22" fill="#0f172a" stroke="#334155" stroke-width="3"/>
  <text x="670" y="285" font-family="Inter, Arial, sans-serif" font-size="48" text-anchor="middle" fill="#e2e8f0">PDF</text>
  <path d="M568 372h205" stroke="#475569" stroke-width="12" stroke-linecap="round"/>
  <path d="M568 416h205" stroke="#475569" stroke-width="12" stroke-linecap="round"/>
  <path d="M568 460h155" stroke="#475569" stroke-width="12" stroke-linecap="round"/>
  <rect x="568" y="518" width="205" height="122" rx="12" fill="#111827" stroke="#334155"/>

  <rect x="82" y="760" width="738" height="284" rx="24" fill="rgba(15,23,42,0.75)" stroke="#334155"/>
  <text x="120" y="845" font-family="Inter, Arial, sans-serif" font-size="56" font-weight="700" fill="#f8fafc">Making Life Easy</text>
  <text x="120" y="900" font-family="Inter, Arial, sans-serif" font-size="30" fill="#a5b4fc">Convert screenshots and image batches into one clean PDF.</text>
  <text x="120" y="946" font-family="Inter, Arial, sans-serif" font-size="26" fill="#93c5fd">Fast • Simple • Utility-first workflow</text>
</svg>
