<svg width="1200" height="1600" viewBox="0 0 1200 1600" fill="none" xmlns="http://www.w3.org/2000/svg">
  <defs>
    <linearGradient id="bg" x1="96" y1="116" x2="1094" y2="1524" gradientUnits="userSpaceOnUse">
      <stop stop-color="#F5F6FA"/>
      <stop offset="0.62" stop-color="#EEF1F8"/>
      <stop offset="1" stop-color="#E8ECF5"/>
    </linearGradient>
    <linearGradient id="header" x1="182" y1="232" x2="1014" y2="232" gradientUnits="userSpaceOnUse">
      <stop stop-color="#5627D9"/>
      <stop offset="1" stop-color="#6E39F0"/>
    </linearGradient>
    <linearGradient id="panel" x1="250" y1="334" x2="918" y2="1268" gradientUnits="userSpaceOnUse">
      <stop stop-color="#FFFFFF"/>
      <stop offset="1" stop-color="#FBFCFF"/>
    </linearGradient>
    <filter id="shadow" x="154" y="146" width="896" height="1238" filterUnits="userSpaceOnUse" color-interpolation-filters="sRGB">
      <feFlood flood-opacity="0" result="BackgroundImageFix"/>
      <feColorMatrix in="SourceAlpha" type="matrix" values="0 0 0 0 0 0 0 0 0 0 0 0 0 0 0 0 0 0 127 0" result="hardAlpha"/>
      <feOffset dy="26"/>
      <feGaussianBlur stdDeviation="30"/>
      <feColorMatrix type="matrix" values="0 0 0 0 0.286 0 0 0 0 0.318 0 0 0 0 0.42 0 0 0 0.14 0"/>
      <feBlend mode="normal" in2="BackgroundImageFix" result="effect1_dropShadow_0_1"/>
      <feBlend mode="normal" in="SourceGraphic" in2="effect1_dropShadow_0_1" result="shape"/>
    </filter>
  </defs>

  <rect width="1200" height="1600" rx="42" fill="url(#bg)"/>
  <g opacity="0.3">
    <path d="M166 348C286 314 382 272 480 292C578 312 640 414 760 424C872 434 962 388 1030 336" stroke="#D6DDF0" stroke-width="3"/>
    <path d="M126 1248C246 1214 342 1172 440 1192C538 1212 600 1314 720 1324C832 1334 922 1288 990 1236" stroke="#D6DDF0" stroke-width="3"/>
    <path d="M238 230V1396" stroke="#E0E5F4" stroke-width="2"/>
    <path d="M418 230V1396" stroke="#E0E5F4" stroke-width="2"/>
    <path d="M598 230V1396" stroke="#E0E5F4" stroke-width="2"/>
    <path d="M778 230V1396" stroke="#E0E5F4" stroke-width="2"/>
    <path d="M958 230V1396" stroke="#E0E5F4" stroke-width="2"/>
  </g>

  <g filter="url(#shadow)">
    <rect x="182" y="182" width="836" height="1200" rx="42" fill="url(#panel)"/>
    <rect x="182" y="182" width="836" height="96" rx="42" fill="url(#header)"/>
    <rect x="216" y="212" width="34" height="34" rx="10" fill="#FFC845"/>
    <text x="233" y="236" text-anchor="middle" fill="#5627D9" font-family="Avenir Next, Segoe UI, Arial, sans-serif" font-size="20" font-weight="800">H</text>
    <text x="268" y="238" fill="#FFFFFF" font-family="Avenir Next, Segoe UI, Arial, sans-serif" font-size="28" font-weight="800">HOUSING.COM</text>
    <text x="926" y="238" text-anchor="end" fill="#E3D8FF" font-family="Avenir Next, Segoe UI, Arial, sans-serif" font-size="24" font-weight="700">Version_1</text>

    <text x="266" y="370" fill="#242B36" font-family="Avenir Next, Segoe UI, Arial, sans-serif" font-size="70" font-weight="800">Trend-AI</text>

    <rect x="266" y="428" width="668" height="396" rx="34" fill="#FFFFFF" stroke="#D8DEEE" stroke-width="3"/>
    <rect x="296" y="460" width="608" height="214" rx="28" fill="#FCFDFF" stroke="#D0D7EA" stroke-width="2"/>
    <text x="330" y="516" fill="#707B8D" font-family="Avenir Next, Segoe UI, Arial, sans-serif" font-size="28">What market trend are you looking for?</text>
    <path d="M330 592H870" stroke="#E2E7F3" stroke-width="4" stroke-linecap="round"/>
    <circle cx="810" cy="674" r="30" fill="#EFE7FF"/>
    <rect x="800" y="650" width="20" height="34" rx="10" stroke="#7949F2" stroke-width="5"/>
    <path d="M794 672C794 684 801 692 810 692C819 692 826 684 826 672" stroke="#7949F2" stroke-width="5" stroke-linecap="round"/>
    <path d="M810 692V708" stroke="#7949F2" stroke-width="5" stroke-linecap="round"/>
    <path d="M798 708H822" stroke="#7949F2" stroke-width="5" stroke-linecap="round"/>
    <rect x="842" y="644" width="60" height="60" rx="30" fill="#5D2AE6"/>
    <path d="M860 674H885" stroke="#FFFFFF" stroke-width="6" stroke-linecap="round"/>
    <path d="M875 662L888 674L875 686" stroke="#FFFFFF" stroke-width="6" stroke-linecap="round" stroke-linejoin="round"/>

    <rect x="296" y="724" width="188" height="60" rx="30" fill="#FFFFFF" stroke="#D9CCFF" stroke-width="3"/>
    <rect x="500" y="724" width="206" height="60" rx="30" fill="#FFFFFF" stroke="#D9CCFF" stroke-width="3"/>
    <rect x="722" y="724" width="182" height="60" rx="30" fill="#FFFFFF" stroke="#D9CCFF" stroke-width="3"/>
    <text x="390" y="762" text-anchor="middle" fill="#5B6375" font-family="Avenir Next, Segoe UI, Arial, sans-serif" font-size="20">Lead quality</text>
    <text x="603" y="762" text-anchor="middle" fill="#5B6375" font-family="Avenir Next, Segoe UI, Arial, sans-serif" font-size="20">Noida supply</text>
    <text x="813" y="762" text-anchor="middle" fill="#5B6375" font-family="Avenir Next, Segoe UI, Arial, sans-serif" font-size="20">2Cr Gurgaon</text>

    <rect x="266" y="862" width="668" height="214" rx="34" fill="#FFFFFF" stroke="#D8DEEE" stroke-width="3"/>
    <text x="294" y="928" fill="#242B36" font-family="Avenir Next, Segoe UI, Arial, sans-serif" font-size="34" font-weight="800">Data Capabilities</text>
    <rect x="296" y="986" width="128" height="52" rx="26" fill="#FFFFFF" stroke="#D8DEEE" stroke-width="2"/>
    <rect x="438" y="986" width="158" height="52" rx="26" fill="#FFFFFF" stroke="#D8DEEE" stroke-width="2"/>
    <rect x="610" y="986" width="116" height="52" rx="26" fill="#FFFFFF" stroke="#D8DEEE" stroke-width="2"/>
    <rect x="740" y="986" width="164" height="52" rx="26" fill="#FFFFFF" stroke="#D8DEEE" stroke-width="2"/>
    <text x="360" y="1019" text-anchor="middle" fill="#4F596B" font-family="Avenir Next, Segoe UI, Arial, sans-serif" font-size="20">Demand</text>
    <text x="517" y="1019" text-anchor="middle" fill="#4F596B" font-family="Avenir Next, Segoe UI, Arial, sans-serif" font-size="20">Lead Quality</text>
    <text x="668" y="1019" text-anchor="middle" fill="#4F596B" font-family="Avenir Next, Segoe UI, Arial, sans-serif" font-size="20">Supply</text>
    <text x="822" y="1019" text-anchor="middle" fill="#4F596B" font-family="Avenir Next, Segoe UI, Arial, sans-serif" font-size="20">Seller Supply</text>

    <rect x="266" y="1108" width="668" height="226" rx="34" fill="#FFFFFF" stroke="#D8DEEE" stroke-width="3"/>
    <text x="294" y="1170" fill="#242B36" font-family="Avenir Next, Segoe UI, Arial, sans-serif" font-size="34" font-weight="800">Results</text>
    <text x="898" y="1170" text-anchor="end" fill="#7A8497" font-family="Avenir Next, Segoe UI, Arial, sans-serif" font-size="20">Simple table view</text>
    <rect x="296" y="1204" width="608" height="38" rx="19" fill="#F7F9FE" stroke="#D8DEEE" stroke-width="2"/>
    <rect x="316" y="1266" width="560" height="18" rx="9" fill="#D9E0EF"/>
    <rect x="316" y="1302" width="468" height="18" rx="9" fill="#D9E0EF"/>

  </g>
</svg>
