<svg width="1200" height="1600" viewBox="0 0 1200 1600" fill="none" xmlns="http://www.w3.org/2000/svg">
  <defs>
    <linearGradient id="bg" x1="140" y1="120" x2="1038" y2="1516" gradientUnits="userSpaceOnUse">
      <stop stop-color="#FFF9F2"/>
      <stop offset="0.58" stop-color="#FFF1E3"/>
      <stop offset="1" stop-color="#FFE1BF"/>
    </linearGradient>
    <linearGradient id="phone" x1="326" y1="286" x2="858" y2="1292" gradientUnits="userSpaceOnUse">
      <stop stop-color="#FFFFFF"/>
      <stop offset="1" stop-color="#FFF9F1"/>
    </linearGradient>
    <linearGradient id="accent" x1="382" y1="732" x2="818" y2="1128" gradientUnits="userSpaceOnUse">
      <stop stop-color="#FF9A2F"/>
      <stop offset="1" stop-color="#F27A14"/>
    </linearGradient>
    <linearGradient id="progress" x1="392" y1="1178" x2="784" y2="1178" gradientUnits="userSpaceOnUse">
      <stop stop-color="#FFB04A"/>
      <stop offset="1" stop-color="#F57E15"/>
    </linearGradient>
    <filter id="shadow" x="194" y="186" width="812" height="1248" filterUnits="userSpaceOnUse" color-interpolation-filters="sRGB">
      <feFlood flood-opacity="0" result="BackgroundImageFix"/>
      <feColorMatrix in="SourceAlpha" type="matrix" values="0 0 0 0 0 0 0 0 0 0 0 0 0 0 0 0 0 0 127 0" result="hardAlpha"/>
      <feOffset dy="34"/>
      <feGaussianBlur stdDeviation="36"/>
      <feColorMatrix type="matrix" values="0 0 0 0 0.561 0 0 0 0 0.325 0 0 0 0 0.078 0 0 0 0.18 0"/>
      <feBlend mode="normal" in2="BackgroundImageFix" result="effect1_dropShadow_0_1"/>
      <feBlend mode="normal" in="SourceGraphic" in2="effect1_dropShadow_0_1" result="shape"/>
    </filter>
  </defs>

  <rect width="1200" height="1600" rx="42" fill="url(#bg)"/>
  <circle cx="990" cy="254" r="170" fill="#FFF4E8"/>
  <circle cx="218" cy="1360" r="224" fill="#FFE9D2"/>
  <circle cx="1046" cy="1174" r="120" fill="#FFF1E0" fill-opacity="0.8"/>

  <g opacity="0.26">
    <path d="M118 332C252 292 314 238 446 258C576 278 638 388 774 398C886 406 962 374 1054 316" stroke="#F4CCAB" stroke-width="4"/>
    <path d="M136 1240C266 1210 354 1166 478 1184C600 1202 642 1294 782 1302C886 1308 968 1278 1044 1228" stroke="#F4CCAB" stroke-width="4"/>
  </g>

  <g opacity="0.9">
    <g transform="translate(120 286) rotate(-16)">
      <ellipse cx="0" cy="0" rx="28" ry="108" fill="#F57E15"/>
      <path d="M-8 -112C-28 -140 -28 -176 -4 -196C18 -168 16 -136 -8 -112Z" fill="#54B14D"/>
      <path d="M10 -116C12 -146 34 -170 62 -178C62 -144 44 -118 10 -116Z" fill="#6AC260"/>
    </g>
    <g transform="translate(1036 420) rotate(18)">
      <ellipse cx="0" cy="0" rx="24" ry="92" fill="#F7941D"/>
      <path d="M-8 -96C-24 -118 -24 -150 -2 -168C18 -144 16 -118 -8 -96Z" fill="#54B14D"/>
      <path d="M8 -100C10 -124 30 -146 54 -154C54 -126 38 -102 8 -100Z" fill="#6AC260"/>
    </g>
    <g transform="translate(996 1266) rotate(22)">
      <ellipse cx="0" cy="0" rx="22" ry="82" fill="#F7941D"/>
      <path d="M-6 -88C-20 -106 -20 -132 -2 -148C14 -128 14 -106 -6 -88Z" fill="#54B14D"/>
      <path d="M8 -90C10 -112 26 -132 50 -140C48 -116 34 -92 8 -90Z" fill="#6AC260"/>
    </g>
  </g>

  <g filter="url(#shadow)">
    <rect x="266" y="258" width="668" height="1100" rx="54" fill="url(#phone)"/>
    <rect x="302" y="300" width="596" height="1020" rx="40" fill="#FFFFFF" stroke="#F5E5D2" stroke-width="3"/>
    <circle cx="600" cy="344" r="10" fill="#FAD0A7"/>
    <rect x="536" y="334" width="128" height="18" rx="9" fill="#F4F0E8"/>

    <text x="600" y="434" text-anchor="middle" fill="#F27A14" font-family="Avenir Next, Segoe UI, Arial, sans-serif" font-size="72" font-weight="800">NutriPlay</text>
    <text x="600" y="484" text-anchor="middle" fill="#6D5743" font-family="Avenir Next, Segoe UI, Arial, sans-serif" font-size="24" letter-spacing="3">PLAYFUL NUTRITION QUIZ</text>

    <g>
      <text x="352" y="560" fill="#7D6A58" font-family="Avenir Next, Segoe UI, Arial, sans-serif" font-size="22" font-weight="700">Lives</text>
      <g transform="translate(420 548) scale(0.58)">
        <ellipse cx="0" cy="0" rx="18" ry="54" fill="#F57E15"/>
        <path d="M-5 -58C-18 -74 -18 -96 -2 -110C14 -92 12 -72 -5 -58Z" fill="#54B14D"/>
        <path d="M6 -60C8 -78 22 -94 40 -98C40 -78 30 -60 6 -60Z" fill="#6AC260"/>
      </g>
      <g transform="translate(466 548) scale(0.58)">
        <ellipse cx="0" cy="0" rx="18" ry="54" fill="#F57E15"/>
        <path d="M-5 -58C-18 -74 -18 -96 -2 -110C14 -92 12 -72 -5 -58Z" fill="#54B14D"/>
        <path d="M6 -60C8 -78 22 -94 40 -98C40 -78 30 -60 6 -60Z" fill="#6AC260"/>
      </g>
      <g transform="translate(512 548) scale(0.58)">
        <ellipse cx="0" cy="0" rx="18" ry="54" fill="#F57E15"/>
        <path d="M-5 -58C-18 -74 -18 -96 -2 -110C14 -92 12 -72 -5 -58Z" fill="#54B14D"/>
        <path d="M6 -60C8 -78 22 -94 40 -98C40 -78 30 -60 6 -60Z" fill="#6AC260"/>
      </g>
      <g transform="translate(558 548) scale(0.58)">
        <ellipse cx="0" cy="0" rx="18" ry="54" fill="#F57E15"/>
        <path d="M-5 -58C-18 -74 -18 -96 -2 -110C14 -92 12 -72 -5 -58Z" fill="#54B14D"/>
        <path d="M6 -60C8 -78 22 -94 40 -98C40 -78 30 -60 6 -60Z" fill="#6AC260"/>
      </g>
      <g transform="translate(604 548) scale(0.58)">
        <ellipse cx="0" cy="0" rx="18" ry="54" fill="#F57E15"/>
        <path d="M-5 -58C-18 -74 -18 -96 -2 -110C14 -92 12 -72 -5 -58Z" fill="#54B14D"/>
        <path d="M6 -60C8 -78 22 -94 40 -98C40 -78 30 -60 6 -60Z" fill="#6AC260"/>
      </g>
      <text x="782" y="560" text-anchor="end" fill="#7D6A58" font-family="Avenir Next, Segoe UI, Arial, sans-serif" font-size="22" font-weight="700">Streak 5</text>
    </g>

    <rect x="342" y="604" width="516" height="402" rx="34" fill="#FFF8F0" stroke="#F6E4D1" stroke-width="3"/>
    <text x="600" y="678" text-anchor="middle" fill="#443528" font-family="Avenir Next, Segoe UI, Arial, sans-serif" font-size="28" font-weight="700">
      <tspan x="600" dy="0">Which food is richest in</tspan>
      <tspan x="600" dy="34">Vitamin C?</tspan>
    </text>

    <rect x="380" y="754" width="440" height="78" rx="22" fill="#FFFFFF" stroke="#F4DDC7" stroke-width="3"/>
    <rect x="380" y="852" width="440" height="78" rx="22" fill="url(#accent)"/>
    <rect x="380" y="950" width="440" height="78" rx="22" fill="#FFFFFF" stroke="#F4DDC7" stroke-width="3"/>

    <text x="600" y="804" text-anchor="middle" fill="#715A48" font-family="Avenir Next, Segoe UI, Arial, sans-serif" font-size="30" font-weight="600">Bread</text>
    <text x="600" y="902" text-anchor="middle" fill="#FFFFFF" font-family="Avenir Next, Segoe UI, Arial, sans-serif" font-size="30" font-weight="800">Orange</text>
    <text x="600" y="1000" text-anchor="middle" fill="#715A48" font-family="Avenir Next, Segoe UI, Arial, sans-serif" font-size="30" font-weight="600">Cheese</text>

    <circle cx="808" cy="892" r="26" fill="#FFFFFF"/>
    <path d="M795 892L806 903L824 881" stroke="#F27A14" stroke-width="8" stroke-linecap="round" stroke-linejoin="round"/>

    <rect x="342" y="1058" width="516" height="172" rx="32" fill="#FFFFFF" stroke="#F5E3CF" stroke-width="3"/>
    <text x="378" y="1110" fill="#F27A14" font-family="Avenir Next, Segoe UI, Arial, sans-serif" font-size="28" font-weight="800">Why it matters</text>
    <text x="378" y="1152" fill="#715A48" font-family="Avenir Next, Segoe UI, Arial, sans-serif" font-size="22">Citrus fruits support immunity and</text>
    <text x="378" y="1186" fill="#715A48" font-family="Avenir Next, Segoe UI, Arial, sans-serif" font-size="22">make nutrition facts easier to remember.</text>
    <rect x="378" y="1204" width="406" height="14" rx="7" fill="#F6EBDD"/>

    <text x="352" y="1286" fill="#7D6A58" font-family="Avenir Next, Segoe UI, Arial, sans-serif" font-size="22" font-weight="700">Progress</text>
    <rect x="392" y="1268" width="392" height="22" rx="11" fill="#F7EADB"/>
    <rect x="392" y="1268" width="286" height="22" rx="11" fill="url(#progress)"/>
  </g>

  <g opacity="0.9">
    <circle cx="266" cy="1080" r="52" fill="#FFFFFF" stroke="#F6DDC5" stroke-width="3"/>
    <path d="M266 1042C238 1042 216 1064 216 1092C216 1140 266 1182 266 1182C266 1182 316 1140 316 1092C316 1064 294 1042 266 1042Z" fill="#FFB248"/>
    <path d="M250 1074L266 1120L282 1074" stroke="#FFFFFF" stroke-width="8" stroke-linecap="round" stroke-linejoin="round"/>

    <circle cx="942" cy="920" r="60" fill="#FFFFFF" stroke="#F6DDC5" stroke-width="3"/>
    <circle cx="924" cy="904" r="20" fill="#8FD27D"/>
    <circle cx="958" cy="890" r="22" fill="#FFB248"/>
    <circle cx="972" cy="928" r="20" fill="#FF8356"/>
    <rect x="906" y="946" width="72" height="18" rx="9" fill="#9CCD7E"/>
  </g>
</svg>
